HIERARCHY
ROOT Hips
{
	OFFSET 0.000000 0.000000 0.000000
	CHANNELS 6 Xposition Yposition Zposition Xrotation Yrotation Zrotation
	JOINT LeftUpLeg_virtual
	{
		OFFSET 0.000000 0.000000 0.000000
		CHANNELS 3 Xrotation Yrotation Zrotation
		JOINT LeftUpLeg
		{
			OFFSET 13.026900 -6.336304 -1.092800
			CHANNELS 3 Xrotation Yrotation Zrotation
			JOINT LeftLeg
			{
				OFFSET 0.524474 -46.096886 9.782700
				CHANNELS 3 Xrotation Yrotation Zrotation
				JOINT LeftFoot
				{
					OFFSET -0.524474 -53.427422 -12.948200
					CHANNELS 3 Xrotation Yrotation Zrotation
					JOINT LeftToeBase
					{
						OFFSET 0.192200 -14.009700 16.364100
						CHANNELS 3 Xrotation Yrotation Zrotation
						JOINT LeftToe_End
						{
							OFFSET -1.784700 -0.561700 9.474800
							CHANNELS 3 Xrotation Yrotation Zrotation
							End Site
							{
								OFFSET 0 0 0
							}
						}
					}
				}
			}
		}
	}
	JOINT RightUpLeg_virtual
	{
		OFFSET 0.000000 0.000000 0.000000
		CHANNELS 3 Xrotation Yrotation Zrotation
		JOINT RightUpLeg
		{
			OFFSET -12.883000 -6.336304 -1.092800
			CHANNELS 3 Xrotation Yrotation Zrotation
			JOINT RightLeg
			{
				OFFSET -0.524587 -46.096825 9.782800
				CHANNELS 3 Xrotation Yrotation Zrotation
				JOINT RightFoot
				{
					OFFSET 0.524587 -53.427383 -12.948300
					CHANNELS 3 Xrotation Yrotation Zrotation
					JOINT RightToeBase
					{
						OFFSET -0.192200 -14.009700 16.364100
						CHANNELS 3 Xrotation Yrotation Zrotation
						JOINT RightToe_End
						{
							OFFSET 1.784700 -0.561700 9.474800
							CHANNELS 3 Xrotation Yrotation Zrotation
							End Site
							{
								OFFSET 0 0 0
							}
						}
					}
				}
			}
		}
	}
	JOINT Spine_virtual
	{
		OFFSET 0.000000 0.000000 0.000000
		CHANNELS 3 Xrotation Yrotation Zrotation
		JOINT Spine
		{
			OFFSET 0.072000 7.257294 -0.789700
			CHANNELS 3 Xrotation Yrotation Zrotation
			JOINT Spine1
			{
				OFFSET 0.000000 12.508769 -0.658067
				CHANNELS 3 Xrotation Yrotation Zrotation
				JOINT Spine1_split
				{
					OFFSET 0.000000 12.508769 -0.658067
					CHANNELS 3 Xrotation Yrotation Zrotation
					JOINT Spine2
					{
						OFFSET 0.000000 12.508769 -0.658067
						CHANNELS 3 Xrotation Yrotation Zrotation
						JOINT Neck_virtual
						{
							OFFSET 0.000000 0.000000 0.000000
							CHANNELS 3 Xrotation Yrotation Zrotation
							JOINT Neck
							{
								OFFSET 0.000000 14.033295 7.520400
								CHANNELS 3 Xrotation Yrotation Zrotation
								JOINT Head
								{
									OFFSET 0.000000 8.198502 5.703100
									CHANNELS 3 Xrotation Yrotation Zrotation
									JOINT HeadTop_End
									{
										OFFSET 0.000000 17.760803 13.332701
										CHANNELS 3 Xrotation Yrotation Zrotation
										End Site
										{
											OFFSET 0 0 0
										}
									}
								}
							}
						}
						JOINT LeftShoulder_virtual
						{
							OFFSET 0.000000 0.000000 0.000000
							CHANNELS 3 Xrotation Yrotation Zrotation
							JOINT LeftShoulder
							{
								OFFSET 6.292450 5.785301 -0.669000
								CHANNELS 3 Xrotation Yrotation Zrotation
								JOINT LeftShoulder_split
								{
									OFFSET 6.292450 5.785301 -0.669000
									CHANNELS 3 Xrotation Yrotation Zrotation
									JOINT LeftArm
									{
										OFFSET 13.907140 -6.093903 1.965100
										CHANNELS 3 Xrotation Yrotation Zrotation
										JOINT LeftForeArm
										{
											OFFSET 34.140198 0.000000 0.000000
											CHANNELS 3 Xrotation Yrotation Zrotation
											JOINT LeftHand
											{
												OFFSET 40.960209 0.000000 0.000000
												CHANNELS 3 Xrotation Yrotation Zrotation
												End Site
												{
													OFFSET 0 0 0
												}
											}
										}
									}
								}
							}
						}
						JOINT RightShoulder_virtual
						{
							OFFSET 0.000000 0.000000 0.000000
							CHANNELS 3 Xrotation Yrotation Zrotation
							JOINT RightShoulder
							{
								OFFSET -6.292450 5.785301 -0.669000
								CHANNELS 3 Xrotation Yrotation Zrotation
								JOINT RightShoulder_split
								{
									OFFSET -6.292450 5.785301 -0.669000
									CHANNELS 3 Xrotation Yrotation Zrotation
									JOINT RightArm
									{
										OFFSET -13.907140 -6.093903 1.965100
										CHANNELS 3 Xrotation Yrotation Zrotation
										JOINT RightForeArm
										{
											OFFSET -34.140198 0.000000 0.000000
											CHANNELS 3 Xrotation Yrotation Zrotation
											JOINT RightHand
											{
												OFFSET -40.960209 0.000000 0.000000
												CHANNELS 3 Xrotation Yrotation Zrotation
												End Site
												{
													OFFSET 0 0 0
												}
											}
										}
									}
								}
							}
						}
					}
				}
			}
		}
	}
}
MOTION
Frames: 10
Frame Time: 0.03333333
0.425629 112.882675 -54.627838 0.000000 0.000000 0.000000 171.440098 -68.109144 173.329615 -30.435801 10.310308 14.792438 36.054711 1.681963 -0.428082 -0.364383 -2.683598 1.371087 -0.744625 5.831337 -5.257929 0.000000 0.000000 0.000000 170.734935 -65.704944 173.276039 -13.227023 -10.692015 3.419077 17.728268 4.439876 -3.316771 -5.511462 3.171964 -3.632242 -2.766670 -5.826098 -1.208579 0.000000 0.000000 0.000000 169.466269 -67.602200 171.280312 3.873802 2.917462 3.849728 -3.279390 1.447021 -1.894193 0.781462 -2.562295 0.480747 0.000000 0.000000 0.000000 -4.386789 1.817993 -1.801611 1.870575 18.415833 7.567901 0.707915 32.075128 -14.757915 0.000000 0.000000 0.000000 -4.965837 2.184683 -1.916710 1.208249 -0.003764 2.244436 1.194496 -0.616576 -1.790645 12.634895 -1.411869 -66.486366 8.002581 -20.632615 -8.284995 0.000000 0.000000 0.000000 -4.598947 1.945829 -2.519504 2.500154 -5.150639 18.387409 -5.318237 -1.646265 -1.404038 11.493069 31.473051 53.912336 15.820975 28.275856 -0.253898 0.000000 0.000000 0.000000 
-0.923800 113.340363 -56.707619 0.000000 0.000000 0.000000 171.854991 -62.483144 173.649787 -32.580774 3.108487 10.500768 35.583359 1.844156 0.208203 1.964910 -2.265735 0.647531 -1.777062 6.438311 -5.498308 0.000000 0.000000 0.000000 171.232774 -59.424046 173.836797 -12.973527 -7.889645 4.910198 17.692910 6.975812 -2.919958 -4.966917 2.880465 -5.062319 -2.762051 -5.665323 -1.329294 0.000000 0.000000 0.000000 170.942191 -61.498292 172.431035 4.140830 3.453465 3.718614 -3.222784 1.941375 -1.996380 0.811695 -2.418109 0.615338 0.000000 0.000000 0.000000 -4.316633 2.276112 -2.015601 1.844248 16.853171 7.517047 0.297008 29.198413 -13.682309 0.000000 0.000000 0.000000 -5.007034 2.654337 -2.046888 1.052023 0.155764 2.335700 1.398225 -0.897375 -1.630867 14.188829 -0.649663 -67.581696 9.189769 -19.898506 -8.520943 0.000000 0.000000 0.000000 -4.515259 2.412230 -2.696875 2.521739 -5.556487 18.240215 -5.092720 -1.717207 -0.959123 10.352194 33.519843 53.967852 16.132661 27.466718 -0.853596 0.000000 0.000000 0.000000 
-2.459254 113.604431 -58.984627 0.000000 0.000000 0.000000 172.019462 -56.743781 173.743620 -35.176690 -3.217707 6.439166 33.532233 1.453371 0.994693 4.314273 -2.211998 -1.048286 -3.782349 7.010197 -5.681039 0.000000 0.000000 0.000000 171.715587 -53.135067 174.412801 -12.491360 -5.183878 6.388785 18.457876 9.191567 -2.607862 -4.792641 2.476454 -6.819747 -2.399753 -5.477419 -1.349800 0.000000 0.000000 0.000000 172.061645 -55.384392 173.281899 4.388612 3.863894 3.354628 -3.051411 2.313352 -1.918356 0.780854 -2.065301 0.678565 0.000000 0.000000 0.000000 -4.127196 2.622249 -2.039017 1.851646 15.034112 7.058186 -0.410322 25.439359 -12.065683 0.000000 0.000000 0.000000 -4.961455 3.005011 -1.962263 0.890517 0.344587 2.275838 1.611018 -1.212851 -1.453130 15.436460 -0.106664 -68.747070 10.066039 -18.217064 -8.921667 0.000000 0.000000 0.000000 -4.346924 2.747960 -2.648002 2.591379 -5.970046 17.956902 -4.871778 -1.654642 -0.507680 8.988865 35.756518 54.330770 16.176494 26.305799 -1.353904 0.000000 0.000000 0.000000 
-4.117246 113.489510 -61.371498 0.000000 0.000000 0.000000 172.244366 -50.862844 173.990682 -38.091244 -8.155394 3.048512 30.354098 0.681905 1.699197 6.793181 -2.362802 -3.337348 -5.333611 7.502258 -6.052649 0.000000 0.000000 0.000000 172.241484 -46.959606 175.022136 -12.075291 -2.784790 7.686236 20.209352 11.250753 -2.496034 -4.502476 2.121971 -8.567701 -2.392763 -5.253435 -1.455087 0.000000 0.000000 0.000000 173.020535 -49.557397 174.095662 4.711836 4.124357 2.805766 -2.771698 2.543834 -1.679393 0.860050 -1.581138 0.616505 0.000000 0.000000 0.000000 -3.823418 2.834453 -1.881531 1.899532 13.003199 6.255680 -1.231485 20.977273 -10.106150 0.000000 0.000000 0.000000 -4.823750 3.223617 -1.687646 0.744433 0.632217 2.055824 1.893208 -1.598154 -1.261730 16.377525 0.328349 -69.849756 10.552872 -16.212984 -9.440437 0.000000 0.000000 0.000000 -4.114020 2.935040 -2.407851 2.710481 -6.380943 17.534241 -4.594293 -1.477738 -0.054770 7.454918 38.030985 55.066085 15.997283 25.128234 -1.802211 0.000000 0.000000 0.000000 
-5.770318 113.034752 -64.104980 0.000000 0.000000 0.000000 172.569292 -44.989281 174.415820 -41.392565 -11.515959 0.540964 26.801872 -0.201008 2.124444 9.988642 -2.427851 -5.970378 -4.963655 7.832442 -6.791357 0.000000 0.000000 0.000000 172.809373 -41.045021 175.572444 -11.844921 -0.877293 8.658033 22.401888 13.292170 -2.585681 -3.845692 2.138502 -9.907115 -2.967072 -4.960222 -1.727774 0.000000 0.000000 0.000000 173.861304 -44.049888 174.902594 5.182449 4.236430 2.191571 -2.404514 2.640194 -1.335862 0.783171 -0.901935 0.502202 0.000000 0.000000 0.000000 -3.451213 2.914837 -1.585981 1.932556 10.813203 5.258610 -1.967318 16.086434 -8.020059 0.000000 0.000000 0.000000 -4.574060 3.324738 -1.293042 0.637131 1.033843 1.686419 2.184894 -2.116846 -1.100082 17.132432 0.740966 -70.764462 10.701230 -14.554903 -9.965738 0.000000 0.000000 0.000000 -3.820003 2.988393 -2.050280 2.854043 -6.795527 16.979843 -4.274974 -1.240748 0.328412 5.942184 40.202268 56.025559 15.669164 24.239344 -2.275245 0.000000 0.000000 0.000000 
-7.202910 112.379349 -67.136101 0.000000 0.000000 0.000000 172.917235 -39.305731 174.869809 -44.710056 -13.512535 -1.169407 23.161137 -1.028001 2.282228 13.863140 -2.335867 -8.733384 -2.752015 7.925154 -7.717580 0.000000 0.000000 0.000000 173.260726 -35.614649 175.873696 -11.535885 0.390065 9.282271 24.105532 15.296719 -2.797592 -3.004229 2.783628 -11.084605 -3.907201 -4.562842 -2.054741 0.000000 0.000000 0.000000 174.551099 -38.930371 175.630842 5.810440 4.215097 1.635436 -1.975788 2.628577 -0.963805 0.534897 -0.335360 0.415928 0.000000 0.000000 0.000000 -3.049809 2.889231 -1.241533 1.937098 8.556543 4.218185 -2.499721 11.016167 -5.943562 0.000000 0.000000 0.000000 -4.223839 3.325511 -0.877398 0.572970 1.511694 1.203143 2.561552 -2.669246 -0.934169 17.792605 1.178818 -71.395961 10.629171 -13.659552 -10.384815 0.000000 0.000000 0.000000 -3.501166 2.938226 -1.675625 2.968067 -7.193961 16.331742 -3.951397 -0.994542 0.667587 4.641694 42.222706 57.010728 15.241777 23.780719 -2.783996 0.000000 0.000000 0.000000 
-8.298359 111.717972 -70.492577 0.000000 0.000000 0.000000 173.233869 -34.116508 175.274279 -47.468421 -14.301453 -2.127728 19.542848 -1.588714 2.230136 17.605975 -2.157117 -10.961485 -0.506160 7.787128 -8.328137 0.000000 0.000000 0.000000 173.549971 -30.588992 175.951902 -10.825974 0.878219 9.508583 24.964946 17.167592 -3.013851 -2.382615 3.994984 -12.615154 -4.611957 -4.053004 -2.276427 0.000000 0.000000 0.000000 175.061245 -34.207486 176.180003 6.524700 4.074275 1.179124 -1.533620 2.531399 -0.645083 0.287936 -0.019310 0.326809 0.000000 0.000000 0.000000 -2.646948 2.787660 -0.926168 1.910101 6.328672 3.279940 -2.765577 6.115938 -4.008333 0.000000 0.000000 0.000000 -3.810946 3.255539 -0.532013 0.555421 1.936446 0.659293 2.974745 -3.114562 -0.812812 18.336418 1.567493 -71.717519 10.482237 -13.439947 -10.621485 0.000000 0.000000 0.000000 -3.182315 2.825246 -1.366645 3.014399 -7.565045 15.674109 -3.580777 -0.741326 0.971974 3.796319 44.080105 57.835494 14.811229 23.825512 -3.363491 0.000000 0.000000 0.000000 
-8.977395 111.216202 -74.045746 0.000000 0.000000 0.000000 173.395157 -29.553125 175.489813 -49.157373 -14.266905 -2.698564 15.887708 -1.817650 2.126119 20.135606 -1.865550 -12.081098 0.185459 7.487142 -8.329160 0.000000 0.000000 0.000000 173.598369 -26.069111 175.804916 -9.711686 0.681933 9.250876 24.919662 18.866012 -3.032590 -1.715517 5.466758 -14.247178 -5.142002 -3.454751 -2.256459 0.000000 0.000000 0.000000 175.324618 -29.872795 176.450970 7.183745 3.854856 0.839371 -1.113004 2.390656 -0.427862 0.043884 0.059117 0.367025 0.000000 0.000000 0.000000 -2.301296 2.644318 -0.696570 1.866323 4.217863 2.543715 -2.764432 1.648155 -2.298679 0.000000 0.000000 0.000000 -3.362337 3.138389 -0.311452 0.585604 2.186172 0.126483 3.333881 -3.409140 -0.746180 18.792644 1.815874 -71.727723 10.364479 -13.497701 -10.664037 0.000000 0.000000 0.000000 -2.864527 2.683283 -1.158839 2.975094 -7.855018 15.079724 -3.139763 -0.395625 1.292850 3.597345 45.779889 58.363434 14.449159 24.353637 -4.004031 0.000000 0.000000 0.000000 
-9.380977 110.874725 -77.567673 0.000000 0.000000 0.000000 173.374899 -25.695979 175.487272 -49.657429 -13.913113 -3.201420 12.668396 -1.891521 2.127376 20.845587 -1.508809 -11.896680 -0.565890 7.074149 -7.953711 0.000000 0.000000 0.000000 173.420784 -22.025845 175.606131 -8.449485 0.176992 8.758352 24.459283 20.587097 -2.930662 -0.742193 6.893392 -15.370154 -6.151734 -2.857345 -1.960730 0.000000 0.000000 0.000000 175.349138 -26.032166 176.516130 7.622839 3.610496 0.551372 -0.749595 2.235811 -0.311034 -0.048254 -0.106857 0.331585 0.000000 0.000000 0.000000 -2.031910 2.481412 -0.568988 1.840896 2.293424 2.055788 -2.578870 -2.152761 -0.879132 0.000000 0.000000 0.000000 -2.942335 2.992381 -0.202128 0.654916 2.219346 -0.313027 3.576273 -3.530925 -0.707257 18.993793 1.855506 -71.475327 10.326143 -13.458484 -10.532708 0.000000 0.000000 0.000000 -2.579792 2.534538 -1.031774 2.871691 -8.028439 14.614897 -2.717658 0.105200 1.619179 4.117886 47.233654 58.549481 14.216882 25.384031 -4.683512 0.000000 0.000000 0.000000 
-9.638062 110.648994 -80.954712 0.000000 0.000000 0.000000 173.241219 -22.494183 175.432398 -49.497210 -13.513127 -3.707461 10.749393 -1.912063 2.204085 20.161190 -1.211729 -10.654800 -1.990592 6.584223 -7.511218 0.000000 0.000000 0.000000 173.175239 -18.483621 175.495072 -7.346759 -0.124449 8.327633 24.664976 22.225890 -3.004362 0.281557 7.804948 -15.701492 -7.598460 -2.371413 -1.377332 0.000000 0.000000 0.000000 175.205321 -22.737136 176.516690 7.816607 3.374478 0.228780 -0.482541 2.082853 -0.250738 -0.033552 -0.206200 0.354262 0.000000 0.000000 0.000000 -1.879290 2.304295 -0.495367 1.877516 0.595759 1.824572 -2.263735 -5.143249 0.226185 0.000000 0.000000 0.000000 -2.604372 2.831427 -0.145339 0.763054 2.071550 -0.578732 3.607866 -3.601017 -0.779325 18.817200 1.667047 -71.054437 10.348107 -13.138042 -10.291426 0.000000 0.000000 0.000000 -2.333819 2.385838 -0.929420 2.731427 -8.075008 14.249895 -2.266687 0.654427 1.982458 5.339784 48.205805 58.315349 14.141761 26.895045 -5.365479 0.000000 0.000000 0.000000 
